<?xml version="1.0" standalone="no"?>
<!DOCTYPE svg PUBLIC "-//W3C//DTD SVG 20010904//EN"
 "http://www.w3.org/TR/2001/REC-SVG-20010904/DTD/svg10.dtd">
<svg version="1.0" xmlns="http://www.w3.org/2000/svg"
 width="512.000000pt" height="512.000000pt" viewBox="0 0 512.000000 512.000000"
 preserveAspectRatio="xMidYMid meet">
<metadata>
Created by potrace 1.14, written by Peter Selinger 2001-2017
</metadata>
<g transform="translate(0.000000,512.000000) scale(0.100000,-0.100000)"
fill="#000000" stroke="none">
<path d="M2932 4264 c-59 -17 -104 -54 -129 -105 -12 -24 -43 -118 -68 -209
-25 -91 -55 -194 -65 -230 -10 -36 -47 -162 -80 -280 -34 -118 -70 -244 -80
-280 -25 -83 -330 -1150 -335 -1170 -2 -8 -60 -213 -129 -454 -69 -241 -126
-451 -126 -465 0 -170 197 -276 333 -179 66 47 59 23 511 1608 240 838 436
1540 436 1559 0 142 -134 245 -268 205z"/>
<path d="M1210 3618 c-26 -8 -150 -125 -493 -467 -273 -272 -467 -472 -479
-496 -29 -54 -29 -137 0 -190 21 -41 909 -934 948 -954 12 -6 46 -13 75 -17
162 -18 283 154 213 302 -9 18 -180 198 -381 399 l-365 365 365 365 c221 221
372 380 382 402 48 100 3 227 -97 279 -40 21 -121 26 -168 12z"/>
<path d="M3748 3609 c-106 -54 -149 -171 -104 -279 9 -22 150 -171 381 -403
l367 -367 -357 -358 c-197 -196 -368 -373 -381 -392 -38 -57 -37 -156 2 -216
24 -38 80 -84 110 -91 53 -13 80 -14 126 -3 52 12 62 22 512 469 347 346 464
467 481 503 27 58 26 128 -3 184 -12 23 -213 230 -479 495 -397 395 -464 457
-501 468 -54 15 -112 12 -154 -10z"/>
</g>
</svg>
